P3
# Created by GIMP version 3.0.6 PNM plug-in
36 36
255
155
64
38
156
66
39
146
56
32
146
59
34
147
59
36
156
70
46
142
57
34
133
50
26
140
58
35
133
53
30
132
53
32
140
62
41
127
51
29
127
52
32
125
51
29
127
56
35
119
48
28
131
131
131
160
69
43
148
58
31
147
57
33
149
62
37
141
53
30
146
60
36
141
56
33
136
53
29
137
55
32
134
54
31
135
56
35
133
55
34
125
49
27
127
52
32
122
48
26
129
58
37
118
47
27
133
133
133
158
67
41
146
53
29
155
66
41
144
58
33
143
56
31
143
58
35
142
60
36
141
60
37
135
53
31
129
48
27
129
51
29
131
54
33
120
43
23
118
44
23
126
52
32
123
50
30
114
43
23
130
130
130
158
67
41
149
56
32
150
61
36
147
61
36
143
56
31
143
58
35
140
58
34
136
55
32
126
44
22
134
53
32
131
53
31
133
56
35
127
50
30
125
51
30
127
53
33
126
53
33
118
47
27
133
133
133
156
65
40
151
62
37
145
56
32
151
64
40
143
57
32
144
58
36
143
60
38
134
52
28
140
60
38
132
53
30
131
54
32
125
48
27
128
53
33
123
49
28
115
43
22
120
48
29
118
49
29
139
139
139
159
68
43
151
62
37
152
63
39
152
65
41
151
65
40
143
57
35
141
58
36
133
51
27
130
50
28
132
53
30
129
52
30
130
53
32
123
48
28
123
49
28
120
48
27
125
53
34
115
46
26
130
130
130
157
66
41
146
56
31
151
64
40
147
60
35
139
55
30
140
56
33
134
51
29
139
57
35
135
55
32
135
56
34
129
52
31
124
49
27
127
53
31
122
49
28
120
49
28
116
43
24
108
40
20
130
130
130
152
61
36
157
67
42
143
56
32
143
56
31
145
61
36
142
58
35
137
54
32
137
55
33
140
60
37
138
59
37
131
54
33
126
51
29
126
52
30
122
49
28
118
47
26
116
43
24
118
50
30
141
141
141
151
61
36
145
58
32
145
57
34
132
46
21
142
58
33
137
54
30
135
54
30
137
57
35
129
49
28
130
52
30
123
46
24
126
50
29
123
49
29
122
50
29
119
47
26
116
45
26
116
48
29
115
115
115
151
61
36
151
64
38
144
56
33
137
51
26
139
55
30
138
55
31
128
47
23
139
59
37
132
52
31
130
52
30
129
52
30
130
54
33
125
51
31
115
43
22
118
46
25
116
45
26
119
51
32
121
121
121
146
58
31
150
62
38
144
57
33
145
59
36
143
60
36
136
53
31
133
52
30
132
51
30
133
55
33
127
50
28
124
48
27
124
50
29
119
45
25
118
44
25
126
55
35
119
49
30
114
45
27
121
121
121
148
60
33
152
64
40
147
60
36
143
57
34
145
62
38
144
61
39
131
50
28
135
54
33
135
57
35
127
50
28
127
51
30
128
54
33
124
50
30
124
50
31
123
52
32
117
47
28
113
44
26
122
122
122
149
61
37
145
58
32
149
63
40
144
60
36
139
56
33
140
57
34
133
52
30
132
53
31
131
54
32
124
48
27
131
55
35
130
55
35
123
50
30
121
50
29
115
45
26
116
46
27
112
45
26
122
122
122
151
63
39
144
57
31
145
59
36
143
59
35
134
51
28
144
61
38
135
54
32
127
48
26
137
60
38
128
52
31
128
52
32
124
49
29
123
50
30
117
46
25
115
45
26
120
50
31
110
43
24
129
129
129
151
63
39
146
59
35
144
59
36
145
61
38
136
53
31
140
60
37
139
59
37
134
55
34
125
47
26
124
48
26
126
51
30
127
54
34
120
47
27
118
48
28
118
48
29
114
46
27
118
51
32
123
123
123
151
63
39
144
57
33
138
53
30
145
61
38
138
55
33
132
52
29
129
49
27
132
53
32
125
47
26
128
52
30
120
45
24
122
49
29
120
47
27
116
46
26
111
41
22
113
45
26
115
48
29
117
117
117
134
134
134
136
136
136
133
133
133
129
129
129
134
134
134
133
133
133
136
136
136
131
131
131
133
133
133
118
118
118
121
121
121
123
123
123
125
125
125
123
123
123
126
126
126
124
124
124
122
122
122
124
124
124
133
133
133
131
131
131
132
132
132
134
134
134
136
136
136
129
129
129
135
135
135
136
136
136
131
131
131
119
119
119
121
121
121
122
122
122
121
121
121
124
124
124
124
124
124
124
124
124
122
122
122
124
124
124
137
57
34
134
55
34
135
57
36
125
49
27
130
55
35
119
45
23
128
57
36
117
46
26
129
129
129
158
67
41
151
61
34
149
59
35
149
62
37
147
59
36
147
61
37
141
56
33
139
56
32
135
53
30
134
54
31
131
52
31
131
53
32
125
49
27
130
55
35
126
52
30
128
57
36
117
46
26
132
132
132
159
68
42
154
64
37
150
60
36
147
60
35
147
59
36
149
63
39
137
52
29
131
48
24
138
56
33
135
54
33
136
58
36
132
55
34
125
48
28
120
46
25
130
56
36
123
50
30
119
48
28
136
136
136
160
69
43
153
60
36
149
60
35
148
62
37
142
55
30
147
62
39
146
64
40
137
56
33
133
51
29
138
57
36
139
61
39
129
52
31
124
47
27
125
51
30
122
48
28
120
47
27
119
48
28
133
133
133
156
65
39
153
60
36
150
61
36
145
59
34
143
56
31
139
54
31
141
59
35
141
60
37
137
55
33
130
51
28
120
43
21
124
47
26
121
46
26
129
55
34
117
45
24
118
46
27
122
53
33
131
131
131
154
63
38
152
63
38
149
60
36
146
59
35
145
59
34
141
55
33
142
59
37
132
50
26
135
55
33
130
51
28
129
52
30
127
50
29
124
49
29
127
53
32
125
53
32
121
49
30
123
54
34
133
133
133
155
64
39
151
62
37
153
64
40
147
60
36
140
54
29
139
53
31
142
59
37
134
52
28
134
54
32
135
56
34
129
52
31
124
49
27
129
55
33
120
47
26
121
50
29
116
43
24
119
51
31
128
128
128
150
59
34
153
63
38
144
57
33
144
57
32
142
58
33
139
55
32
138
55
33
132
50
28
135
55
32
135
56
34
129
52
31
129
54
32
125
51
29
119
46
25
124
53
32
123
50
31
118
50
30
130
130
130
150
59
34
152
62
37
144
57
33
142
55
30
143
59
34
139
55
32
138
55
33
137
55
33
136
56
33
131
53
31
124
47
25
129
53
32
123
49
29
121
49
28
123
51
30
117
46
27
112
44
25
121
121
121
149
59
34
140
53
27
144
56
33
135
49
24
142
58
33
140
57
33
131
50
26
135
55
33
128
48
27
128
50
28
122
45
23
124
48
27
122
48
28
119
47
26
119
47
26
118
47
28
116
48
29
119
119
119
151
61
36
150
63
37
151
63
40
138
52
27
140
56
31
142
59
35
133
52
28
139
59
37
132
52
31
127
50
28
127
51
30
123
49
28
116
42
22
118
44
25
123
52
32
118
48
29
115
46
28
130
130
130
142
54
27
148
60
36
141
54
30
148
62
39
144
61
37
143
60
38
129
48
26
135
54
33
125
47
25
127
50
28
124
48
27
125
51
30
125
51
31
118
44
25
126
55
35
113
43
24
115
46
28
123
123
123
140
52
25
152
64
40
146
59
35
140
54
31
142
59
35
144
61
39
135
54
32
134
53
32
130
52
30
130
54
33
132
56
36
123
48
28
128
55
35
123
52
31
117
47
28
113
43
24
112
45
26
128
128
128
153
65
41
145
58
32
148
62
39
139
55
31
131
48
25
140
57
34
135
54
32
133
54
32
132
55
33
130
54
33
132
56
36
121
46
26
126
53
33
116
45
24
117
47
28
115
45
26
114
47
28
124
124
124
154
66
42
144
57
31
148
62
39
145
61
37
134
51
28
144
61
38
130
49
27
129
50
28
131
54
32
123
47
25
124
49
28
124
51
31
117
44
24
111
41
21
114
44
25
113
45
26
116
49
30
126
126
126
145
57
33
148
61
37
138
53
30
144
60
37
140
57
35
133
53
30
134
54
32
133
54
33
128
50
29
123
47
25
127
52
31
120
47
27
121
48
28
113
43
23
116
46
27
116
48
29
118
51
32
123
123
123
148
60
36
145
58
34
137
52
29
149
65
42
136
53
31
138
58
35
134
54
32
131
52
31
125
47
26
123
123
123
123
123
123
121
121
121
125
125
125
121
121
121
125
125
125
123
123
123
120
120
120
121
121
121
139
139
139
137
137
137
131
131
131
129
129
129
130
130
130
130
130
130
130
130
130
132
132
132
140
140
140
128
128
128
125
125
125
121
121
121
120
120
120
124
124
124
118
118
118
125
125
125
123
123
123
120
120
120
139
139
139
138
138
138
134
134
134
134
134
134
128
128
128
133
133
133
130
130
130
130
130
130
142
142
142
161
70
44
150
60
33
151
61
37
149
62
37
148
60
37
144
58
34
143
58
35
141
58
34
136
54
31
134
54
31
137
58
37
135
57
36
126
50
28
130
55
35
122
48
26
129
58
37
115
44
24
134
134
134
156
65
39
150
60
33
147
57
33
149
62
37
145
57
34
145
59
35
141
56
33
139
56
32
136
54
31
132
52
29
134
55
34
129
51
30
125
49
27
131
56
36
123
49
27
125
54
33
114
43
23
135
135
135
159
68
42
148
55
31
148
59
34
147
61
36
143
56
31
143
58
35
139
57
33
136
55
32
132
50
28
133
52
31
132
54
32
134
57
36
120
43
23
119
45
24
130
56
36
124
51
31
121
50
30
139
139
139
153
62
36
148
55
31
150
61
36
145
59
34
143
56
31
143
58
35
146
64
40
144
63
40
132
50
28
134
53
32
123
45
23
127
50
29
125
48
28
123
49
28
122
48
28
123
50
30
120
49
29
130
130
130
159
68
43
149
60
35
147
58
34
155
68
44
142
56
31
139
53
31
136
53
31
134
52
28
133
53
31
131
52
29
133
56
34
128
51
30
129
54
34
120
46
25
116
44
23
125
53
34
119
50
30
132
132
132
157
66
41
157
68
43
146
57
33
149
62
38
147
61
36
141
55
33
143
60
38
134
52
28
136
56
34
132
53
30
132
55
33
123
46
25
121
46
26
123
49
28
122
50
29
120
48
29
117
48
28
139
139
139
148
57
32
151
61
36
146
59
35
144
57
32
142
58
33
136
52
29
137
54
32
134
52
30
135
55
32
135
56
34
131
54
33
130
55
33
121
47
25
116
43
22
125
54
33
114
41
22
111
43
23
131
131
131
149
58
33
152
62
37
145
58
34
143
56
31
144
60
35
139
55
32
141
58
36
137
55
33
135
55
32
139
60
38
130
53
32
126
51
29
124
50
28
121
48
27
116
45
24
113
40
21
117
49
29
130
130
130
155
65
40
147
60
34
147
59
36
140
54
29
142
58
33
137
54
30
132
51
27
133
53
31
133
53
32
132
54
32
129
52
30
127
51
30
119
45
25
119
47
26
118
46
25
118
47
28
111
43
24
127
127
127
151
61
36
146
59
33
150
62
39
142
56
31
143
59
34
144
61
37
132
51
27
132
52
30
128
48
27
128
50
28
122
45
23
123
47
26
129
55
35
118
46
25
117
45
24
118
47
28
116
48
29
124
124
124
145
57
30
153
65
41
145
58
34
143
57
34
145
62
38
132
49
27
141
60
38
138
57
36
130
52
30
131
54
32
125
49
28
126
52
31
116
42
22
122
48
29
122
51
31
116
46
27
113
44
26
121
121
121
145
57
30
151
63
39
143
56
32
143
57
34
144
61
37
132
49
27
131
50
28
133
52
31
132
54
32
127
50
28
126
50
29
119
45
24
122
48
28
118
44
25
115
44
24
119
49
30
111
42
24
128
128
128
148
60
36
141
54
28
151
65
42
143
59
35
134
51
28
147
64
41
132
51
29
135
56
34
130
53
31
127
51
30
130
54
34
121
46
26
124
51
31
115
44
23
117
47
28
115
45
26
107
40
21
119
119
119
150
62
38
142
55
29
147
61
38
143
59
35
132
49
26
148
65
42
137
56
34
131
52
30
134
57
35
126
50
29
128
52
32
120
45
25
127
54
34
118
47
26
114
44
25
113
43
24
113
46
27
129
129
129
149
61
37
144
57
33
138
53
30
149
65
42
134
51
29
142
62
39
137
57
35
138
59
38
128
50
29
123
47
25
125
50
29
117
44
24
123
50
30
116
46
26
113
43
24
113
45
26
118
51
32
121
121
121
148
60
36
148
61
37
140
55
32
140
56
33
138
55
33
134
54
31
133
53
31
133
54
33
126
48
27
128
52
30
132
57
36
122
49
29
117
44
24
118
48
28
111
41
22
110
42
23
122
55
36
121
121
121
133
133
133
133
133
133
134
134
134
132
132
132
138
138
138
134
134
134
136
136
136
131
131
131
134
134
134
124
124
124
124
124
124
123
123
123
123
123
123
121
121
121
123
123
123
125
125
125
126
126
126
125
125
125
129
129
129
134
134
134
133
133
133
134
134
134
135
135
135
134
134
134
134
134
134
130
130
130
125
125
125
123
123
123
116
116
116
120
120
120
121
121
121
123
123
123
119
119
119
124
124
124
123
123
123
127
127
127
129
49
26
138
59
38
129
51
30
131
55
33
135
60
40
120
46
24
123
52
31
122
51
31
130
130
130
163
72
46
152
62
35
151
61
37
152
65
40
146
58
35
149
63
39
141
56
33
135
52
28
138
56
33
135
55
32
138
59
38
132
54
33
125
49
27
130
55
35
125
51
29
119
48
27
108
37
17
129
129
129
157
66
40
150
60
33
153
63
39
143
56
31
141
53
30
147
61
37
146
61
38
141
58
34
140
58
35
132
51
30
138
60
38
129
52
31
126
49
29
125
51
30
118
44
24
124
51
31
120
49
29
135
135
135
155
64
38
153
60
36
150
61
36
145
59
34
138
51
26
140
55
32
141
59
35
142
61
38
138
56
34
131
50
29
132
54
32
129
52
31
126
49
29
126
52
31
129
55
35
124
51
31
114
43
23
134
134
134
152
61
35
149
56
32
150
61
36
142
56
31
141
54
29
144
59
36
141
59
35
135
54
31
134
52
30
132
53
30
132
55
33
128
51
30
125
50
30
126
52
31
118
46
25
120
48
29
125
56
36
134
134
134
156
65
40
151
62
37
147
58
34
149
62
38
137
51
26
144
58
36
140
57
35
138
56
32
139
59
37
132
53
30
130
53
31
124
47
26
120
45
25
123
49
28
116
44
23
123
51
32
116
47
27
133
133
133
159
68
43
150
61
36
145
56
32
152
65
41
142
56
31
141
55
33
139
56
34
134
52
28
131
51
29
132
53
31
129
52
31
126
51
29
124
50
28
119
46
25
123
52
31
112
39
20
112
44
24
136
136
136
150
59
34
148
58
33
145
58
34
138
51
26
143
59
34
138
54
31
139
56
34
136
54
32
135
55
32
135
56
34
129
52
31
135
60
38
124
50
28
123
50
29
120
49
28
119
46
27
120
52
32
133
133
133
153
62
37
152
62
37
141
54
30
142
55
30
142
58
33
143
59
36
138
55
33
136
54
32
142
62
39
126
48
26
127
50
28
123
47
26
124
50
30
120
48
27
117
45
24
109
38
19
117
49
30
118
118
118
147
57
32
147
60
34
144
56
33
138
52
27
140
56
31
139
56
32
131
50
26
136
56
34
128
48
27
129
51
29
127
50
28
126
50
29
124
50
30
122
50
29
117
45
24
115
44
25
115
47
28
122
122
122
150
60
35
148
61
35
147
59
36
140
54
29
143
59
34
139
56
32
133
52
28
139
59
37
132
52
31
129
52
30
120
44
23
130
56
35
125
51
31
116
42
23
123
52
32
121
51
32
117
48
30
124
124
124
144
56
29
151
63
39
144
57
33
139
53
30
143
60
36
139
56
34
135
54
32
135
54
33
130
52
30
127
50
28
128
52
31
125
51
30
121
47
27
119
45
26
122
51
31
111
41
22
119
50
32
123
123
123
146
58
31
151
63
39
144
57
33
136
50
27
145
62
38
136
53
31
129
48
26
133
52
31
131
53
31
130
54
33
126
50
30
123
48
28
128
55
35
120
49
28
117
47
28
113
43
24
109
42
23
120
120
120
149
61
37
141
54
28
143
57
34
142
58
34
135
52
29
142
59
36
134
53
31
132
53
31
130
53
31
127
51
30
129
53
33
118
43
23
125
52
32
120
49
28
118
48
29
112
42
23
108
41
22
127
127
127
152
64
40
138
51
25
154
68
45
148
64
40
133
50
27
140
57
34
132
51
29
131
52
30
132
55
33
124
48
26
126
51
30
126
53
33
120
47
27
115
45
25
113
43
24
114
46
27
117
50
31
121
121
121
151
63
39
150
63
39
138
53
30
146
62
39
135
52
30
136
56
33
132
52
30
132
53
32
127
49
28
123
47
25
130
55
34
121
48
28
117
44
24
117
47
27
115
45
26
114
46
27
117
50
31
121
121
121
149
61
37
146
59
35
141
56
33
151
67
44
138
55
33
138
58
35
136
56
34
129
50
29
124
46
25
124
124
124
122
122
122
124
124
124
124
124
124
120
120
120
117
117
117
121
121
121
127
127
127
124
124
124
136
136
136
135
135
135
139
139
139
141
141
141
133
133
133
130
130
130
136
136
136
132
132
132
139
139
139
123
123
123
120
120
120
129
129
129
119
119
119
125
125
125
127
127
127
123
123
123
123
123
123
121
121
121
137
137
137
134
134
134
134
134
134
136
136
136
130
130
130
134
134
134
134
134
134
136
136
136
139
139
139
